<svg width="480" height="144" viewBox="0 0 480 144" fill="none" xmlns="http://www.w3.org/2000/svg">
<path d="M55.4595 73L67.4275 89H56.5475L46.3075 74.856V89H36.7075V44.2H46.3075V71.016L55.9075 57H67.1075L55.4595 73ZM96.412 85.032C93.1693 88.2747 89.1587 89.896 84.38 89.896C79.6013 89.896 75.5907 88.2747 72.348 85.032C69.0627 81.7467 67.42 77.736 67.42 73C67.42 68.3067 69.0627 64.3173 72.348 61.032C75.6333 57.7467 79.644 56.104 84.38 56.104C89.116 56.104 93.1267 57.7467 96.412 61.032C99.6973 64.3173 101.34 68.3067 101.34 73C101.34 77.736 99.6973 81.7467 96.412 85.032ZM77.02 73C77.02 75.2187 77.724 77.032 79.132 78.44C80.54 79.848 82.2893 80.552 84.38 80.552C86.4707 80.552 88.22 79.848 89.628 78.44C91.036 77.032 91.74 75.2187 91.74 73C91.74 70.7813 91.036 68.968 89.628 67.56C88.22 66.152 86.4707 65.448 84.38 65.448C82.2893 65.448 80.54 66.152 79.132 67.56C77.724 68.968 77.02 70.7813 77.02 73ZM130.002 60.008V44.2H139.602V89H130.002V85.992C127.783 88.5947 124.605 89.896 120.466 89.896C116.242 89.896 112.637 88.2747 109.65 85.032C106.663 81.7893 105.17 77.7787 105.17 73C105.17 68.264 106.663 64.2747 109.65 61.032C112.679 57.7467 116.285 56.104 120.466 56.104C124.605 56.104 127.783 57.4053 130.002 60.008ZM114.77 73C114.77 75.3893 115.474 77.288 116.882 78.696C118.29 80.104 120.125 80.808 122.386 80.808C124.647 80.808 126.482 80.104 127.89 78.696C129.298 77.288 130.002 75.3893 130.002 73C130.002 70.6107 129.298 68.712 127.89 67.304C126.482 65.896 124.647 65.192 122.386 65.192C120.125 65.192 118.29 65.896 116.882 67.304C115.474 68.712 114.77 70.6107 114.77 73ZM155.477 52.52C154.368 53.6293 153.024 54.184 151.445 54.184C149.866 54.184 148.501 53.6293 147.349 52.52C146.24 51.368 145.685 50.0027 145.685 48.424C145.685 46.8453 146.24 45.5013 147.349 44.392C148.501 43.24 149.866 42.664 151.445 42.664C153.024 42.664 154.368 43.24 155.477 44.392C156.629 45.5013 157.205 46.8453 157.205 48.424C157.205 50.0027 156.629 51.368 155.477 52.52ZM156.245 89H146.645V57H156.245V89ZM182.022 73L193.99 89H183.11L172.87 74.856V89H163.27V44.2H172.87V71.016L182.47 57H193.67L182.022 73ZM227.487 74.152L232.095 57H242.335L232.095 89H223.135L218.015 71.912L212.895 89H203.935L193.695 57H203.935L208.543 74.152L213.535 57H222.495L227.487 74.152ZM255.745 57V62.696C256.342 60.6907 257.516 59.1333 259.265 58.024C261.057 56.9147 263.084 56.36 265.345 56.36V67.24C262.956 66.856 260.758 67.2613 258.753 68.456C256.748 69.608 255.745 71.6347 255.745 74.536V89H246.145V57H255.745ZM292.127 60.008V57H301.727V89H292.127V85.992C289.908 88.5947 286.73 89.896 282.591 89.896C278.367 89.896 274.762 88.2747 271.775 85.032C268.788 81.7893 267.295 77.7787 267.295 73C267.295 68.264 268.788 64.2747 271.775 61.032C274.804 57.7467 278.41 56.104 282.591 56.104C286.73 56.104 289.908 57.4053 292.127 60.008ZM276.895 73C276.895 75.3893 277.599 77.288 279.007 78.696C280.415 80.104 282.25 80.808 284.511 80.808C286.772 80.808 288.607 80.104 290.015 78.696C291.423 77.288 292.127 75.3893 292.127 73C292.127 70.6107 291.423 68.712 290.015 67.304C288.607 65.896 286.772 65.192 284.511 65.192C282.25 65.192 280.415 65.896 279.007 67.304C277.599 68.712 276.895 70.6107 276.895 73ZM327.906 56.104C332.087 56.104 335.693 57.7467 338.722 61.032C341.709 64.2747 343.202 68.264 343.202 73C343.202 77.7787 341.709 81.7893 338.722 85.032C335.735 88.2747 332.13 89.896 327.906 89.896C323.767 89.896 320.589 88.5947 318.37 85.992V101.8H308.77V57H318.37V60.008C320.589 57.4053 323.767 56.104 327.906 56.104ZM320.482 78.696C321.933 80.104 323.767 80.808 325.986 80.808C328.205 80.808 330.018 80.104 331.426 78.696C332.877 77.288 333.602 75.3893 333.602 73C333.602 70.6107 332.877 68.712 331.426 67.304C330.018 65.896 328.205 65.192 325.986 65.192C323.767 65.192 321.933 65.896 320.482 67.304C319.074 68.712 318.37 70.6107 318.37 73C318.37 75.3893 319.074 77.288 320.482 78.696ZM367.781 56.104C371.962 56.104 375.568 57.7467 378.597 61.032C381.584 64.2747 383.077 68.264 383.077 73C383.077 77.7787 381.584 81.7893 378.597 85.032C375.61 88.2747 372.005 89.896 367.781 89.896C363.642 89.896 360.464 88.5947 358.245 85.992V101.8H348.645V57H358.245V60.008C360.464 57.4053 363.642 56.104 367.781 56.104ZM360.357 78.696C361.808 80.104 363.642 80.808 365.861 80.808C368.08 80.808 369.893 80.104 371.301 78.696C372.752 77.288 373.477 75.3893 373.477 73C373.477 70.6107 372.752 68.712 371.301 67.304C369.893 65.896 368.08 65.192 365.861 65.192C363.642 65.192 361.808 65.896 360.357 67.304C358.949 68.712 358.245 70.6107 358.245 73C358.245 75.3893 358.949 77.288 360.357 78.696ZM419.816 76.84H397.096C398.163 79.8267 400.723 81.32 404.776 81.32C407.379 81.32 409.427 80.5093 410.92 78.888L418.6 83.304C415.485 87.6987 410.835 89.896 404.648 89.896C399.315 89.896 395.005 88.296 391.72 85.096C388.52 81.896 386.92 77.864 386.92 73C386.92 68.2213 388.499 64.2107 391.656 60.968C394.856 57.7253 398.952 56.104 403.944 56.104C408.595 56.104 412.456 57.7253 415.528 60.968C418.643 64.1253 420.2 68.136 420.2 73C420.2 74.3653 420.072 75.6453 419.816 76.84ZM396.904 69.672H410.664C409.725 66.3013 407.464 64.616 403.88 64.616C400.168 64.616 397.843 66.3013 396.904 69.672ZM435.245 57V62.696C435.842 60.6907 437.016 59.1333 438.765 58.024C440.557 56.9147 442.584 56.36 444.845 56.36V67.24C442.456 66.856 440.258 67.2613 438.253 68.456C436.248 69.608 435.245 71.6347 435.245 74.536V89H425.645V57H435.245Z" fill="url(#paint0_linear_131_5467)"/>
<defs>
<linearGradient id="paint0_linear_131_5467" x1="-186.015" y1="48" x2="593.864" y2="156.256" gradientUnits="userSpaceOnUse">
<stop stop-color="#0038FF"/>
<stop offset="1" stop-color="#00D1FF"/>
</linearGradient>
</defs>
</svg>
